<?xml version="1.0" encoding="UTF-8"?>
<svg version="1.1" xmlns="http://www.w3.org/2000/svg" width="500" height="500">
<path d="M0 0 C1.41502808 0.9892749 1.41502808 0.9892749 2.85864258 1.99853516 C15.40845249 10.83839957 27.54179301 20.21074379 39.3125 30.0625 C40.27027344 30.83464844 41.22804688 31.60679687 42.21484375 32.40234375 C50.66225824 39.31553363 58.39673832 46.93095043 66.125 54.625 C66.92855927 55.42079468 66.92855927 55.42079468 67.74835205 56.23266602 C74.74232804 63.17334691 81.19600361 70.32076972 87.3125 78.0625 C88.36045375 79.34086478 89.41090977 80.61718606 90.46484375 81.890625 C103.02263764 97.24513281 118.73611424 116.69729033 119.6875 137.4375 C119.31056084 141.08124523 118.86290587 142.51209413 116.3125 145.0625 C111.12373705 141.704667 109.49580366 137.82598934 107.24609375 132.31640625 C106.88532242 131.46827866 106.52455109 130.62015106 106.15284729 129.74632263 C105.0053347 127.04457645 103.87639133 124.33561244 102.75 121.625 C101.61799271 118.91892682 100.48192224 116.21478768 99.33644104 113.51438904 C98.62573866 111.83728579 97.92296928 110.15679177 97.22935486 108.47254944 C95.39504301 104.12608554 93.51303969 100.61137957 90.3125 97.0625 C90.65917725 97.84560547 91.00585449 98.62871094 91.36303711 99.43554688 C97.31522101 112.92021017 103.24127518 126.41385331 108.5 140.1875 C108.86150146 141.11369141 109.22300293 142.03988281 109.59545898 142.99414062 C121.52280924 174.8926669 107.84235835 206.37962609 96.125 236.1875 C95.87928253 236.8203894 95.63356506 237.45327881 95.38040161 238.10534668 C88.18721286 256.5399797 77.01174257 268.73509248 60.3125 279.0625 C59.46131592 279.59786377 58.61013184 280.13322754 57.7331543 280.68481445 C50.12012939 285.32023321 42.35369982 288.67889197 34 291.75 C33.36154144 291.98750977 32.72308289 292.22501953 32.0652771 292.46972656 C22.92841796 295.86730805 13.87689001 299.0859326 4.3125 301.0625 C3.03503906 301.35640625 1.75757813 301.6503125 0.44140625 301.953125 C-20.16876493 306.31459348 -42.41648042 305.70260764 -62.6875 300.0625 C-63.3587793 299.88058105 -64.03005859 299.69866211 -64.72167969 299.51123047 C-74.99860356 296.64343052 -84.36488894 292.15445091 -93.6875 287.0625 C-94.33251465 286.71171387 -94.9775293 286.36092773 -95.64208984 285.99951172 C-105.28661008 280.67881733 -113.49467188 274.39468997 -121.6875 267.0625 C-123.1036356 265.85354431 -124.5202246 264.64511928 -125.9375 263.4375 C-127.1944205 262.32023734 -128.44430587 261.19501639 -129.6875 260.0625 C-130.40292969 259.4128125 -131.11835938 258.763125 -131.85546875 258.09375 C-156.58022902 234.60309997 -170.32801168 191.87639498 -171.85546875 158.37890625 C-172.00051526 130.50096614 -165.85509837 101.99486685 -147.6875 80.0625 C-146.98882812 79.21300781 -146.29015625 78.36351562 -145.5703125 77.48828125 C-132.97988135 62.85918598 -118.09186225 53.65916843 -99.67773438 48.61376953 C-97.67732318 48.05968115 -95.69027531 47.47086789 -93.703125 46.87109375 C-84.26938153 44.0625 -84.26938153 44.0625 -79.6875 44.0625 C-79.6875 43.4025 -79.6875 42.7425 -79.6875 42.0625 C-103.20715829 44.81126308 -123.85002963 49.60164886 -141.6875 66.0625 C-142.37972656 66.66320312 -143.07195312 67.26390625 -143.78515625 67.8828125 C-158.99693813 81.85466783 -171.78878073 105.96059286 -175.6875 126.0625 C-175.87441406 127.01769531 -176.06132812 127.97289062 -176.25390625 128.95703125 C-181.18973444 164.30823312 -171.1509939 207.1913482 -153.6875 238.0625 C-153.31254395 238.73120117 -152.93758789 239.39990234 -152.55126953 240.08886719 C-146.74655114 250.28641078 -140.01536016 258.82185729 -131.6875 267.0625 C-130.8728125 267.89910156 -130.058125 268.73570312 -129.21875 269.59765625 C-117.51131135 280.99017962 -102.95184726 289.58113749 -88.625 297.25 C-87.80596191 297.69529053 -86.98692383 298.14058105 -86.14306641 298.59936523 C-74.81979974 304.45681617 -62.52213481 305.8345977 -50.04125977 307.42504883 C-47.49293697 307.75090315 -44.94670963 308.09051751 -42.40039062 308.43164062 C-40.75271068 308.64665112 -39.10492736 308.86087132 -37.45703125 309.07421875 C-36.70992386 309.17417648 -35.96281647 309.27413422 -35.19306946 309.37712097 C-28.14238241 310.26088688 -21.185985 310.66881798 -14.2109375 309.06640625 C-13.22569092 308.84202881 -12.24044434 308.61765137 -11.2253418 308.38647461 C-10.181604 308.13518799 -9.13786621 307.88390137 -8.0625 307.625 C-6.95237549 307.36275635 -5.84225098 307.1005127 -4.69848633 306.83032227 C4.47383589 304.61224531 13.55875527 302.11250165 22.625 299.5 C23.89230957 299.13656494 25.15961914 298.77312988 26.46533203 298.39868164 C38.45118103 294.87737517 49.65117369 291.15159196 59.91210938 283.9296875 C63.38298316 281.66361104 65.71181997 280.80434828 69.76171875 281.3046875 C70.93347656 281.55476563 72.10523438 281.80484375 73.3125 282.0625 C72.05551774 286.76604652 70.5632718 289.32394655 66.9375 292.5625 C66.16664063 293.2740625 65.39578125 293.985625 64.6015625 294.71875 C55.23863671 301.91533334 43.93714686 304.95726911 32.75 308 C31.20183314 308.42832275 29.6538208 308.85720434 28.10595703 309.28662109 C24.99216024 310.14765149 21.87612078 310.99985302 18.75830078 311.84619141 C14.7021252 312.94989704 10.6616105 314.10204418 6.62109375 315.26171875 C4.31036557 315.90533469 1.99919536 316.5473666 -0.3125 317.1875 C-1.82565796 317.63017212 -1.82565796 317.63017212 -3.36938477 318.08178711 C-17.89892953 321.9844835 -32.89095958 320.03597241 -47.6081543 318.20092773 C-50.24929472 317.87508701 -52.89260562 317.57644587 -55.53710938 317.27929688 C-78.98346889 314.50566078 -96.80192084 305.94957979 -115.6875 292.0625 C-116.37956543 291.55879883 -117.07163086 291.05509766 -117.78466797 290.53613281 C-155.74389731 262.8851475 -176.22322028 230.12610565 -183.6875 183.0625 C-184.95781586 173.74213236 -185.81668839 164.4717213 -185.6875 155.0625 C-192.30366544 168.29483087 -185.77611319 193.91376769 -183.86157227 208.02807617 C-183.36758663 211.6798024 -182.90186511 215.33438823 -182.43945312 218.99023438 C-182.13182499 221.34916972 -181.82263949 223.70790263 -181.51171875 226.06640625 C-181.37408615 227.14144913 -181.23645355 228.216492 -181.09465027 229.32411194 C-178.95546551 244.86578537 -173.45764829 253.53029003 -161.08032227 262.98046875 C-159.8543523 263.90789816 -158.62739766 264.8340275 -157.39941406 265.75878906 C-154.98910684 267.59436245 -152.64960097 269.50992126 -150.3125 271.4375 C-148.99378906 272.5203125 -148.99378906 272.5203125 -147.6484375 273.625 C-146.06468094 274.92877849 -144.48118241 276.23287258 -142.89941406 277.5390625 C-107.27266769 306.92343838 -72.79140395 322.43828416 -26.55078125 327.5703125 C-23.86866999 328.03135755 -22.01629544 328.69128711 -19.6875 330.0625 C-20.62680895 332.41077237 -21.25817507 333.78711604 -23.41625977 335.17138672 C-33.77092542 339.23400412 -46.9507816 334.51869715 -57.25 331.9375 C-58.95317875 331.5198189 -60.65646733 331.10258543 -62.35986328 330.68579102 C-67.14329334 329.5069766 -71.91713535 328.29301419 -76.6875 327.0625 C-77.82525879 326.77004395 -78.96301758 326.47758789 -80.13525391 326.17626953 C-97.13875833 321.70825773 -111.61543846 314.68474508 -125.6875 304.0625 C-126.26773926 303.62502441 -126.84797852 303.18754883 -127.44580078 302.73681641 C-134.25917548 297.56100679 -140.76173751 292.17187703 -147.0625 286.37890625 C-151.86340851 282.14239026 -156.96337522 278.27868375 -162.02294922 274.35839844 C-165.94616501 271.30406734 -169.81122905 268.17599849 -173.6875 265.0625 C-174.53054687 264.423125 -175.37359375 263.78375 -176.2421875 263.125 C-178.6819946 261.06714354 -180.40636915 259.09648243 -182.25 256.5 C-183.08724609 255.35337891 -183.08724609 255.35337891 -183.94140625 254.18359375 C-188.19966446 246.57207627 -190.24556485 238.74141742 -191.125 230.125 C-191.23497314 229.14917969 -191.34494629 228.17335938 -191.45825195 227.16796875 C-191.71734643 224.86399463 -191.97104229 222.55940997 -192.22070312 220.25439453 C-192.66416072 216.21209847 -193.15000914 212.17534204 -193.63865662 208.13829041 C-194.10767571 204.25698503 -194.56783787 200.37465287 -195.02688599 196.49215698 C-195.25608868 194.56323354 -195.48785425 192.63461263 -195.72238159 190.70632935 C-199.35736562 160.67829972 -199.35736562 160.67829972 -196.0625 146.5 C-195.92199219 145.79166016 -195.78148437 145.08332031 -195.63671875 144.35351562 C-192.59827033 130.46172947 -185.69483434 117.58838142 -179.23925781 105.03735352 C-177.94057407 102.5059919 -176.66132591 99.96542461 -175.3828125 97.42382812 C-161.79515586 70.71369658 -143.12544883 48.07521647 -114 38.1875 C-81.770635 28.27847163 -48.65436234 36.82809738 -19.59692383 52.20019531 C16.3839491 71.87244505 41.86978177 108.33492401 54.3671875 146.8203125 C57.65003462 158.0796642 58.55473632 173.28803131 53.3125 184.0625 C50.39699669 188.67087619 50.39699669 188.67087619 47.0625 189.875 C46.485 189.936875 45.9075 189.99875 45.3125 190.0625 C42.80797649 186.30571474 42.8003479 183.41208159 43.3125 179.0625 C43.77700693 177.48908347 44.27933143 175.92649526 44.8125 174.375 C50.10339436 157.76817368 43.20705297 141.88251117 35.73193359 127.2043457 C29.45784214 115.2603576 22.02970326 104.36952107 13.3125 94.0625 C12.7246875 93.32902344 12.136875 92.59554687 11.53125 91.83984375 C2.60108948 81.11229922 -9.22923218 73.54002261 -20.69125366 65.78659058 C-21.88535113 64.97847093 -23.07747648 64.16742859 -24.26748657 63.353302 C-42.36713758 51.00914865 -62.22255345 49.48622082 -83.6809082 53.18994141 C-108.76659307 58.16945107 -129.55565008 71.09034169 -144 92.4296875 C-159.34628327 116.04605573 -164.96571741 145.53196497 -160.5 173.25 C-160.39913086 173.9001709 -160.29826172 174.5503418 -160.19433594 175.22021484 C-157.84444121 188.2586469 -152.8069061 200.83559977 -147.92089844 213.09399414 C-147.04885281 215.28427713 -146.18800913 217.47874581 -145.328125 219.67382812 C-144.76887543 221.08879727 -144.20900336 222.50352057 -143.6484375 223.91796875 C-143.3952475 224.56380417 -143.1420575 225.20963959 -142.88119507 225.87504578 C-141.43353046 229.48769193 -139.78632563 232.78488723 -137.6875 236.0625 C-138.19570845 233.41981604 -138.94754807 231.58401156 -140.25 229.1875 C-141.78986599 225.83996524 -141.94712231 223.6972123 -141.6875 220.0625 C-140.6975 219.7325 -139.7075 219.4025 -138.6875 219.0625 C-130.51202453 226.51660999 -127.07124778 233.70740691 -125.5234375 244.609375 C-123.96860959 251.03212205 -119.42869628 254.35966333 -114.375 258.25 C-113.75890869 258.7255835 -113.14281738 259.20116699 -112.50805664 259.69116211 C-110.57879564 261.16355068 -108.63729886 262.6174363 -106.6875 264.0625 C-106.10033203 264.49788086 -105.51316406 264.93326172 -104.90820312 265.38183594 C-75.60719948 286.75607763 -36.71466408 298.36402845 -0.4375 293.4375 C13.33059728 290.62260389 26.01031766 283.99418479 38.53125 277.86328125 C42.21224858 276.06271269 45.9099411 274.32826474 49.65625 272.66796875 C58.88479759 268.55124721 66.26956537 264.5133266 73.3125 257.0625 C74.37597656 256.06476563 74.37597656 256.06476563 75.4609375 255.046875 C78.019226 252.67553358 78.019226 252.67553358 80.3125 250.0625 C80.3125 249.0725 80.3125 248.0825 80.3125 247.0625 C74.68006221 251.04384896 69.20085398 255.11944824 63.88574219 259.51220703 C46.1249962 274.11354533 27.70968806 279.82079461 5.6875 285.375 C4.98691467 285.55216553 4.28632935 285.72933105 3.56451416 285.91186523 C-10.45903984 289.43654793 -10.45903984 289.43654793 -17.6875 290.0625 C-18.42097656 290.12953125 -19.15445313 290.1965625 -19.91015625 290.265625 C-46.06376997 290.93195911 -76.4934479 276.72886229 -96.6875 261.0625 C-98.07775391 260.00289063 -98.07775391 260.00289063 -99.49609375 258.921875 C-129.75328082 235.05946931 -151.87832943 196.30692367 -157.33984375 158.01953125 C-159.99068936 129.27721647 -146.6783406 99.65595344 -128.625 77.875 C-124.54486425 73.57095436 -119.9402318 70.7479296 -114.6875 68.0625 C-113.87925781 67.63324219 -113.07101563 67.20398438 -112.23828125 66.76171875 C-103.79243529 62.58406447 -94.78150959 60.3532577 -85.6875 58.0625 C-84.9135791 57.86205078 -84.1396582 57.66160156 -83.34228516 57.45507812 C-61.98537552 51.97779628 -43.88768985 53.55746693 -24.69921875 64.609375 C-5.6742919 76.0503742 10.9921931 92.98916823 22.3125 112.0625 C22.6734375 112.6591748 23.034375 113.25584961 23.40625 113.87060547 C34.94132756 133.21412479 44.17902932 156.45919814 39.25 179.1875 C33.31774986 199.51094957 19.61726956 217.56208956 1.3125 228.0625 C-9.07084697 233.13579657 -22.73057933 231.97425511 -33.8046875 229.890625 C-36.27306218 228.80494983 -37.24486208 227.29450584 -38.6875 225.0625 C-37.9375 223.125 -37.9375 223.125 -36.6875 221.0625 C-33.68383182 220.00998939 -30.81479374 219.92730416 -27.65234375 219.88671875 C-12.66296379 219.85670069 -12.66296379 219.85670069 1.3125 215.0625 C2.08078125 214.66289062 2.8490625 214.26328125 3.640625 213.8515625 C17.43709529 205.73323134 23.1959888 191.86781249 27.0625 177.125 C27.83014401 174.10833484 28.57549616 171.08676973 29.3125 168.0625 C29.4971582 167.39404053 29.68181641 166.72558105 29.87207031 166.03686523 C30.53841754 163.04975326 30.37109217 160.10929275 30.3125 157.0625 C29.88839844 158.30644531 29.46429688 159.55039062 29.02734375 160.83203125 C22.22658054 180.32833686 9.12664789 202.98605243 -10.15234375 212.83203125 C-16.44428618 215.02204436 -23.05995549 215.46056095 -29.36328125 213.03125 C-31.97059693 211.53422664 -34.30684226 209.8990074 -36.6875 208.0625 C-37.58210937 207.37414062 -38.47671875 206.68578125 -39.3984375 205.9765625 C-44.80612414 201.65950174 -49.99273665 197.09521008 -55.09765625 192.42578125 C-56.9013984 190.77983253 -58.72323633 189.15358853 -60.55859375 187.54296875 C-77.30544959 172.76842894 -98.8413824 149.29067425 -100.9609375 126.06640625 C-101.22751126 117.03365688 -99.48835255 110.23433298 -95.6875 102.0625 C-102.4233452 110.21788283 -103.57055326 117.26958758 -102.91210938 127.72119141 C-101.45413703 142.91896837 -99.43772008 162.60599845 -87.2734375 173.15625 C-83.66377132 175.86089901 -80.03883349 178.34072805 -76.05419922 180.46899414 C-68.42997844 184.61781309 -62.47037217 189.58150498 -56.49267578 195.77026367 C-55.0414143 197.2718164 -53.57146633 198.75302366 -52.09765625 200.23242188 C-42.6875 209.78294335 -42.6875 209.78294335 -42.6875 216.0625 C-47.06913035 217.19932456 -49.57628128 217.47001073 -53.59765625 215.25390625 C-54.99351429 214.39643388 -56.37726092 213.51901674 -57.75 212.625 C-59.25186045 211.69021032 -60.75447618 210.75663308 -62.2578125 209.82421875 C-63.00192383 209.3554834 -63.74603516 208.88674805 -64.51269531 208.40380859 C-67.08683144 206.81621273 -69.71470796 205.35359641 -72.36791992 203.90356445 C-90.1396105 194.13246821 -101.36682889 180.30534159 -107.6875 161.0625 C-112.91651843 142.92005042 -119.13115796 118.48841357 -109.46875 100.8359375 C-101.95613847 89.6922304 -89.77274181 86.4682803 -77.25 83.8125 C-59.55974376 80.95424899 -45.15385339 84.81087359 -30.6640625 95.23828125 C-17.31627363 105.82508913 -6.85591287 119.92720588 -3.6875 137.0625 C-2.51953231 153.68210587 -2.51953231 153.68210587 -7.6875 160.0625 C-12.15269442 164.8736659 -16.4189315 167.68013637 -23.0859375 168.27734375 C-35.061661 168.70627367 -44.49214476 165.73862264 -53.6875 158.0625 C-54.33589844 157.52625 -54.98429688 156.99 -55.65234375 156.4375 C-60.59387364 151.93930212 -64.31334427 146.3138052 -66.6875 140.0625 C-66.34375 137.73046875 -66.34375 137.73046875 -65.6875 136.0625 C-61.08390856 137.48407581 -58.74091785 139.80828749 -55.5 143.3125 C-47.62486307 151.47359445 -39.17874638 156.68416991 -27.6875 158.0625 C-22.58287672 157.94683633 -19.61750739 156.83750616 -15.6875 153.5625 C-12.28684142 148.68586113 -12.21985609 143.10441231 -13.09765625 137.39453125 C-16.92161663 121.52624056 -25.07351046 110.67986572 -38.6875 102.0625 C-49.57097213 96.2067188 -60.70446185 93.0146973 -73.125 95.5625 C-79.29561553 97.61937184 -83.12349178 101.82075387 -86.6875 107.0625 C-90.75070732 117.52985714 -91.02185908 127.68770434 -86.6875 138.0625 C-83.21038981 145.08111131 -79.13104648 151.0898881 -73.77734375 156.79296875 C-71.51354564 159.25141118 -69.45208822 161.81985049 -67.375 164.4375 C-62.53445752 170.41254463 -57.19640581 175.70975215 -51.6875 181.0625 C-51.06488281 181.76503906 -50.44226563 182.46757812 -49.80078125 183.19140625 C-43.67477114 188.61535975 -37.35651506 188.48300004 -29.5625 188.3125 C-28.54003174 188.29864258 -27.51756348 188.28478516 -26.46411133 188.27050781 C-23.53768163 188.221289 -20.6131071 188.14664473 -17.6875 188.0625 C-16.97029785 188.04703125 -16.2530957 188.0315625 -15.51416016 188.015625 C-7.03488229 187.80303407 0.91253349 186.85824575 7.53125 181.1484375 C16.6837195 171.48370292 21.35255469 159.36262127 21.6875 146.125 C21.1160897 126.61239658 11.32672176 110.95342831 -1.6875 97.0625 C-2.34234375 96.33933594 -2.9971875 95.61617188 -3.671875 94.87109375 C-19.65290249 77.96808391 -40.03405464 64.73846848 -63.6875 64.0625 C-83.74309053 64.14650247 -107.67524136 72.78185355 -122.33984375 86.5625 C-136.01069589 101.12047898 -143.76957519 124.42900651 -145.6875 144.0625 C-145.86539063 145.75246094 -145.86539063 145.75246094 -146.046875 147.4765625 C-147.09602803 166.96659758 -138.94158339 186.73012519 -130.6875 204.0625 C-130.20627686 205.07860352 -130.20627686 205.07860352 -129.71533203 206.11523438 C-113.6392921 239.45934158 -83.73825685 257.2544187 -50.9375 271.6875 C-50.24641144 271.99354156 -49.55532288 272.29958313 -48.84329224 272.61489868 C-23.63618841 283.71838031 1.00851247 279.49295999 26.33203125 269.71484375 C44.18551531 262.45871839 59.53668275 252.50334297 73.3125 239.0625 C73.95445312 238.48242188 74.59640625 237.90234375 75.2578125 237.3046875 C91.14266581 222.60196281 102.33088459 199.69893972 103.3125 178.0625 C103.3640625 177.37027344 103.415625 176.67804688 103.46875 175.96484375 C104.97813059 139.2994737 82.9533633 98.9516615 62.3125 70.0625 C61.46688266 68.8571672 60.62186612 67.65141275 59.77734375 66.4453125 C51.49254569 54.67387658 51.49254569 54.67387658 40.9375 44.9375 C39.69080581 43.97864477 38.44473326 43.01898085 37.19921875 42.05859375 C36.55903809 41.5672998 35.91885742 41.07600586 35.25927734 40.56982422 C32.05534823 38.08912967 28.90508711 35.54231381 25.75 33 C20.52132506 28.79448828 15.22868963 24.68857768 9.87255859 20.64697266 C6.50017859 18.07115235 3.42762317 15.31824579 0.375 12.375 C-12.0198499 1.02477278 -27.64575405 -2.07671174 -43.9375 -3.125 C-45.07574219 -3.20685547 -46.21398437 -3.28871094 -47.38671875 -3.37304688 C-50.15313131 -3.57064777 -52.91982238 -3.75866051 -55.6875 -3.9375 C-55.6875 -3.2775 -55.6875 -2.6175 -55.6875 -1.9375 C-55.09960693 -1.87280518 -54.51171387 -1.80811035 -53.90600586 -1.74145508 C-33.22444715 0.60803453 -16.27866026 5.03322079 0.26391602 18.24658203 C4.11826607 21.27852695 8.07434189 23.77665716 12.375 26.125 C38.88462523 40.67765299 56.70268246 64.23650384 71.3125 90.0625 C72.210896 91.65046387 72.210896 91.65046387 73.12744141 93.27050781 C107.85443255 154.8418828 107.85443255 154.8418828 98.75341797 189.17138672 C94.52088753 204.10453851 87.89297385 217.79504606 78.3125 230.0625 C77.9004834 230.59198242 77.4884668 231.12146484 77.06396484 231.66699219 C57.82179766 256.07941609 32.75216681 266.98560348 3.0625 273.875 C1.3864919 274.2718296 -0.2892908 274.66961235 -1.96484375 275.06835938 C-5.00549324 275.79078602 -8.04730236 276.50777588 -11.09082031 277.21801758 C-13.05226739 277.67855555 -15.01200252 278.14822751 -16.95996094 278.6628418 C-20.68686147 279.52504306 -24.34085656 279.86206954 -27.6875 277.875 C-28.6875 276.0625 -28.6875 276.0625 -28.375 273.375 C-28.0346875 272.2303125 -28.0346875 272.2303125 -27.6875 271.0625 C-21.57430142 268.90501136 -15.47208532 267.20631434 -9.1484375 265.79296875 C-7.33192837 265.3747956 -5.51552545 264.95616089 -3.69921875 264.53710938 C-0.89029188 263.8937934 1.9193002 263.25408629 4.73095703 262.62280273 C33.25314072 256.19664777 57.36479095 244.68553551 73.9375 219.375 C86.41318625 199.61441853 93.65237775 176.91049088 89.3125 153.375 C85.82904899 138.90150636 79.24566262 125.17889643 72.35107422 112.04980469 C71.2702785 109.98170946 70.21431453 107.90209744 69.16015625 105.8203125 C64.18658329 96.09318751 58.62741839 86.97499037 52.3125 78.0625 C51.57128906 77.01320313 50.83007812 75.96390625 50.06640625 74.8828125 C37.32674619 57.39700457 22.20908106 45.72609689 4.18359375 34.05078125 C1.43758727 32.14912506 -1.1093863 30.12323509 -3.68359375 28.00097656 C-20.59963153 14.12718834 -38.91480092 8.55297216 -60.6875 8.0625 C-61.43338379 8.04203613 -62.17926758 8.02157227 -62.94775391 8.00048828 C-80.67123031 7.56130322 -97.83022208 9.16740163 -115.25 12.4375 C-116.30783691 12.63432373 -117.36567383 12.83114746 -118.45556641 13.03393555 C-128.49543019 15.01716715 -138.22368234 17.93122133 -147.375 22.5625 C-148.03725586 22.89725342 -148.69951172 23.23200684 -149.38183594 23.5769043 C-161.42248543 29.88370957 -172.19270918 38.11993439 -181.9921875 47.4921875 C-184.50592874 49.88934943 -187.10370964 52.12689753 -189.75 54.375 C-209.46212541 72.22927333 -219.89117725 97.90530498 -230.16796875 121.82421875 C-230.75940674 123.18268921 -230.75940674 123.18268921 -231.36279297 124.56860352 C-232.09501429 126.25485043 -232.81510205 127.94644493 -233.52001953 129.64428711 C-235.80193379 134.89759485 -238.3127743 138.32637682 -242.6875 142.0625 C-243.3475 142.0625 -244.0075 142.0625 -244.6875 142.0625 C-246.47971188 138.47807624 -246.25200542 134.92244148 -245.6875 131.0625 C-244.03505907 126.37591195 -241.88001949 121.95234015 -239.6875 117.5 C-239.0836409 116.24387917 -238.48111013 114.98711895 -237.87988281 113.72973633 C-236.69813859 111.26697034 -235.50604837 108.80972013 -234.30273438 106.35742188 C-232.97352576 103.64596488 -231.66122435 100.92776053 -230.359375 98.203125 C-219.05155905 74.76424391 -204.47596504 56.03516662 -185.6875 38.0625 C-188.97950858 39.2362572 -191.29344412 40.2876897 -193.66796875 42.86328125 C-194.18689697 43.42096191 -194.7058252 43.97864258 -195.24047852 44.55322266 C-195.77987061 45.15440918 -196.3192627 45.7555957 -196.875 46.375 C-197.44597412 47.0045459 -198.01694824 47.6340918 -198.60522461 48.28271484 C-208.63314367 59.4672162 -216.44320843 71.30254048 -224.02539062 84.24169922 C-227.03729538 89.35326613 -230.11131384 94.42694888 -233.1875 99.5 C-233.77499023 100.47694824 -234.36248047 101.45389648 -234.96777344 102.46044922 C-240.8682762 112.19508434 -240.8682762 112.19508434 -243.6875 115.0625 C-247.4375 115.375 -247.4375 115.375 -250.6875 115.0625 C-251.4375 113 -251.4375 113 -251.6875 110.0625 C-248.35408987 103.46548937 -243.98102628 97.46349306 -239.8125 91.375 C-239.05326137 90.2633755 -238.29406598 89.15172146 -237.53491211 88.04003906 C-217.34365209 58.50564572 -217.34365209 58.50564572 -206.6875 45.0625 C-205.96433594 44.11117187 -205.24117187 43.15984375 -204.49609375 42.1796875 C-189.97637835 23.53003516 -169.77847987 13.43304855 -147.375 7.375 C-146.67802002 7.18462158 -145.98104004 6.99424316 -145.26293945 6.7980957 C-128.12531983 2.41476477 -110.64383701 1.15002957 -93.0625 -0.125 C-90.68744395 -0.30329143 -88.31244335 -0.48232303 -85.9375 -0.66210938 C-80.1881098 -1.09575551 -74.4381082 -1.52033314 -68.6875 -1.9375 C-70.62421123 -3.87421123 -74.18344644 -3.17735593 -76.8125 -3.1875 C-124.95148082 -3.16261168 -172.79218697 7.33887872 -207.875 41.875 C-220.04885503 54.16915863 -230.03977047 67.98807811 -238.94921875 82.79296875 C-239.30669189 83.38585693 -239.66416504 83.97874512 -240.0324707 84.58959961 C-240.99804572 86.20468918 -241.94878895 87.82861982 -242.8984375 89.453125 C-244.64139608 91.99525672 -246.05998585 93.48382895 -248.6875 95.0625 C-249.3475 95.0625 -250.0075 95.0625 -250.6875 95.0625 C-252.81799288 91.60044906 -253.05747046 89.09422938 -252.6875 85.0625 C-251.49333333 82.40879628 -250.28688207 80.04768703 -248.8125 77.5625 C-248.40974854 76.86688965 -248.00699707 76.1712793 -247.59204102 75.45458984 C-243.39295483 68.33401349 -238.66714973 61.65321288 -233.6875 55.0625 C-233.04296875 54.20398438 -232.3984375 53.34546875 -231.734375 52.4609375 C-222.94328867 41.12117488 -213.16472277 30.69804451 -201.6875 22.0625 C-200.67816406 21.26457031 -199.66882813 20.46664062 -198.62890625 19.64453125 C-176.96372577 2.93696864 -151.18583533 -3.84752284 -124.67724609 -8.25927734 C-121.88878002 -8.7269364 -119.10693602 -9.22272131 -116.32666016 -9.73681641 C-79.54941311 -16.53579693 -32.3342795 -23.13514893 0 0 Z " fill="#000000" transform="translate(328.6875,145.9375)"/>
<path d="M0 0 C0.69851074 0.16628906 1.39702148 0.33257812 2.11669922 0.50390625 C43.75566845 10.81578123 76.49354735 37.3349253 98.42578125 73.62890625 C111.87841704 96.19357987 122.44329292 117.48289197 122.3125 144.3125 C122.30758545 145.50439941 122.3026709 146.69629883 122.29760742 147.92431641 C122.18544486 156.33938437 121.6164039 163.95033801 119 172 C118.6596875 173.07636719 118.319375 174.15273438 117.96875 175.26171875 C113.52213417 187.95560516 106.3796338 198.45038931 97 208 C96.49218994 208.53987549 95.98437988 209.07975098 95.46118164 209.63598633 C91.2040542 214.06925401 86.70029219 217.57944755 81.5625 220.9375 C80.7789917 221.45256104 79.9954834 221.96762207 79.18823242 222.49829102 C67.14563498 230.27385504 54.7848883 236.05461482 41 240 C40.16597656 240.24621094 39.33195313 240.49242187 38.47265625 240.74609375 C15.83712399 246.35661029 -4.78804304 238.29292516 -24.0480957 226.96630859 C-31.92625219 222.21346002 -39.11634461 217.12369983 -46 211 C-46.83660156 210.28328125 -47.67320312 209.5665625 -48.53515625 208.828125 C-58.96345046 199.73761815 -67.24337325 190.09771831 -74 178 C-74.54527344 177.04480469 -75.09054688 176.08960938 -75.65234375 175.10546875 C-88.4567669 151.28859007 -91.76783428 120.78364511 -84.38183594 94.82763672 C-78.8424854 77.38311723 -69.35017792 61.19844542 -53 52 C-34.35811336 43.08008814 -10.33543958 39.7818069 9.69921875 45.8125 C18.31333115 49.05800546 26.00075842 53.47832504 32.296875 60.23046875 C34.05728484 62.05951843 35.91747316 63.63542569 37.875 65.25 C54.36044139 79.50337002 67.12373483 101.29921572 69.203125 123.1328125 C69.48944645 135.30147394 65.47505082 145.99121397 57.19921875 154.94921875 C53.75461241 158.10359218 50.60691939 159.87636112 46 161 C45.13629936 158.29373801 44.71429231 156.77544611 45 154 C46.94828093 150.67366671 49.47349664 147.89877792 52 145 C53.13901634 143.53159924 54.26516618 142.05307973 55.375 140.5625 C55.85710937 139.92441406 56.33921875 139.28632813 56.8359375 138.62890625 C58.06745625 136.99524301 58.06745625 136.99524301 59 135 C56.29952293 137.63653134 53.70410165 140.29843629 51.23828125 143.15625 C44.69155161 150.69980221 39.04891579 157.02744912 28.6875 158.45703125 C20.09706804 158.86206258 13.52947667 157.02189259 6 153 C4.64648438 152.29037109 4.64648438 152.29037109 3.265625 151.56640625 C-13.35406139 141.93563422 -24.15333817 126.69773321 -30.15625 108.6484375 C-32.39710221 98.95882657 -32.2177585 88.13548544 -28 79 C-25.80226493 75.59705538 -23.92327858 73.19877957 -20 72 C-14.82122905 71.42458101 -14.82122905 71.42458101 -12 72 C-9 74.5 -9 74.5 -7 77 C-9.39812711 79.68590236 -11.30993614 81.15768681 -14.5625 82.8125 C-17.52762551 84.44777308 -18.08123746 85.13626929 -19.9375 88.25 C-22.93402792 98.82598088 -19.72900001 109.06340834 -14.875 118.625 C-11.33242184 124.86561764 -7.10285308 129.97930376 -2 135 C-1.41347656 135.58523438 -0.82695312 136.17046875 -0.22265625 136.7734375 C6.74808215 143.23572204 15.92062947 147.43709532 25.375 148.3125 C34.91076916 147.49045093 39.39798139 144.32052033 45.6328125 136.98828125 C54.0289529 127.18826188 54.0289529 127.18826188 56.81640625 115.171875 C56.13085971 110.91290462 54.71418209 107.16375186 52.9375 103.25 C52.472229 102.21238525 52.472229 102.21238525 51.99755859 101.15380859 C42.92997169 81.54735884 28.61464328 68.14093014 9.625 58.5 C8.98361084 58.17370605 8.34222168 57.84741211 7.68139648 57.51123047 C-6.43132482 50.66880928 -22.41047345 51.3287651 -37.015625 56.3828125 C-51.89655879 62.10128127 -62.57022826 71.53890746 -69.33984375 85.828125 C-79.50928065 109.93803618 -79.97813833 136.79421216 -70.53344727 161.13256836 C-65.72357865 172.84950632 -59.47663281 182.50082892 -50.52563477 191.46923828 C-49.40739504 192.59123589 -48.30300198 193.72707948 -47.20678711 194.87060547 C-42.33701728 199.88772359 -37.17419571 204.2119458 -31.5625 208.375 C-30.69141602 209.02130371 -29.82033203 209.66760742 -28.92285156 210.33349609 C-13.54657275 221.57904304 2.36352245 231.48076622 22 232 C21.030625 231.72027344 20.06125 231.44054687 19.0625 231.15234375 C-2.64308463 224.73199697 -20.16875292 215.13182656 -37 200 C-37.65355469 199.43023437 -38.30710938 198.86046875 -38.98046875 198.2734375 C-59.76835006 179.01625529 -72.05205825 148.49523156 -73.3515625 120.6171875 C-73.41181585 118.34921897 -73.46128445 116.08093842 -73.5 113.8125 C-73.54616455 112.18042603 -73.54616455 112.18042603 -73.59326172 110.51538086 C-73.59460832 101.90854858 -73.59460832 101.90854858 -70.46875 98.76171875 C-69.6540625 98.18035156 -68.839375 97.59898437 -68 97 C-63.07358803 101.76749545 -63.07358803 101.76749545 -62.8581543 105.37573242 C-62.8413562 106.8507019 -62.8413562 106.8507019 -62.82421875 108.35546875 C-62.36040466 132.7751901 -57.03889356 149.37501869 -43.00219727 169.14672852 C-40.09872221 173.2685225 -37.65104346 177.37572151 -35.375 181.875 C-24.25963556 203.23445328 -0.04899716 215.96702584 22.1328125 222.9921875 C27.04670451 224.39806941 31.90071657 225.52784413 37 226 C37.66128906 226.06445312 38.32257813 226.12890625 39.00390625 226.1953125 C56.90236995 227.15587406 75.15572292 213.19552929 88 202 C89.010625 201.2575 90.02125 200.515 91.0625 199.75 C102.26994222 190.16176331 108.87017573 175.38823702 111 161 C112.15002278 145.10819466 111.65452277 129.2900906 107 114 C106.76394043 113.22398437 106.52788086 112.44796875 106.28466797 111.6484375 C94.28529087 73.64654176 65.08424171 39.54679874 29.75488281 21.14575195 C1.70286818 7.28649618 -33.11201795 2.7324202 -63.27734375 12.2890625 C-86.617993 20.30587673 -104.55875283 35.1336202 -119.72265625 54.21875 C-122.20945139 57.25579655 -124.82518562 60.12958001 -127.5 63 C-131.81568341 67.64501062 -135.91851592 72.41140494 -139.87890625 77.3671875 C-141.24843704 79.06712075 -142.65043968 80.74162282 -144.08984375 82.3828125 C-159.54840999 100.3634097 -162.69377445 125.0767311 -164 148 C-164.05994141 149.03664795 -164.05994141 149.03664795 -164.12109375 150.09423828 C-164.56986219 159.30072275 -163.63482204 167.96102522 -161.97973633 177 C-161.05047111 182.30947128 -160.90653137 186.69398831 -162 192 C-162.66 192.33 -163.32 192.66 -164 193 C-170.39745247 187.63997225 -171.84836695 181.05671151 -173 173 C-173.11395564 170.41683277 -173.18664477 167.86059203 -173.203125 165.27734375 C-173.21371445 164.17660019 -173.21371445 164.17660019 -173.22451782 163.05361938 C-173.46751704 130.31087695 -171.33208638 97.87021932 -149 72 C-148.05773712 70.88614076 -147.11638737 69.77150865 -146.17578125 68.65625 C-140.72465996 62.21955045 -135.16437025 55.89919423 -129.44921875 49.6953125 C-127.49139083 47.54076503 -125.57452538 45.36344228 -123.66796875 43.1640625 C-91.48084077 6.33061216 -49.0381428 -11.73128163 0 0 Z " fill="#000000" transform="translate(276,171)"/>
<path d="M0 0 C0.9070166 0.55316895 1.8140332 1.10633789 2.74853516 1.67626953 C5.40140678 3.29465833 8.04608965 4.92548404 10.6875 6.5625 C11.48397949 7.05105469 12.28045898 7.53960937 13.10107422 8.04296875 C20.02002512 12.39523657 20.02002512 12.39523657 22 16 C22.6875 19.25 22.6875 19.25 23 22 C19.32508101 22.5592268 17.11117382 22.66670429 13.87109375 20.72265625 C12.24353943 19.50818678 10.61736503 18.29186696 8.9921875 17.07421875 C-7.59428605 5.57628474 -27.1050572 0.59356595 -47.125 0.63671875 C-48.34034424 0.63894943 -49.55568848 0.64118011 -50.80786133 0.64347839 C-70.7959211 0.82650448 -90.75269954 2.86115952 -110.65710449 4.53363037 C-115.10696927 4.90484513 -119.55770271 5.26493708 -124.00850391 5.62472248 C-143.05270249 7.16499751 -162.09643588 8.72344538 -181.10546875 10.65625 C-182.78823914 10.82547722 -182.78823914 10.82547722 -184.50500488 10.99812317 C-197.3656626 12.36025654 -215.34730553 15.34730553 -225 25 C-227.33297433 25.04092937 -229.66705225 25.04241723 -232 25 C-232.4375 22.375 -232.4375 22.375 -232 19 C-223.19518761 6.82313181 -202.28502683 3.3979507 -188.40229988 1.09149361 C-179.59368241 -0.30760955 -170.75935706 -0.96462026 -161.8671875 -1.5703125 C-160.09273197 -1.69743184 -158.31832898 -1.82528644 -156.54397583 -1.9538269 C-151.92468315 -2.28643672 -147.30473697 -2.60886957 -142.68457031 -2.92907715 C-138.01450398 -3.25474001 -133.34519387 -3.59090012 -128.67578125 -3.92578125 C-118.7848881 -4.63235705 -108.89363927 -5.33283712 -99 -6 C-98.25870094 -6.05017021 -97.51740189 -6.10034042 -96.75363922 -6.15203094 C-94.59911145 -6.29661119 -92.44438898 -6.43776688 -90.28955078 -6.57763672 C-89.06180939 -6.65795135 -87.83406799 -6.73826599 -86.56912231 -6.8210144 C-81.04424671 -7.0980778 -75.53104472 -7.0852387 -70 -7 C-70 -7.66 -70 -8.32 -70 -9 C-80.77363989 -8.64878136 -91.54709842 -8.29244255 -102.32037258 -7.93017006 C-107.32687019 -7.76196493 -112.3334076 -7.59530151 -117.34008789 -7.43261719 C-130.56195978 -7.00207323 -143.78200949 -6.53753385 -157 -6 C-157.83270668 -5.96633835 -158.66541336 -5.9326767 -159.52335358 -5.897995 C-164.12926656 -5.70855114 -168.73336441 -5.49800331 -173.33677864 -5.25510788 C-175.31301349 -5.15343527 -177.28998547 -5.06640475 -179.26695251 -4.98013306 C-191.3562868 -4.28767993 -203.00605386 -1.76072423 -213.625 4.25 C-221.33172882 8.53658289 -221.33172882 8.53658289 -226 8 C-226.3671875 4.796875 -226.3671875 4.796875 -226 1 C-223.99505723 -1.04893838 -222.49590319 -2.27748838 -220.125 -3.75 C-219.03445312 -4.48734375 -217.94390625 -5.2246875 -216.8203125 -5.984375 C-208.30278265 -10.83199782 -198.49612837 -11.91185621 -188.93994141 -13.25268555 C-186.82094396 -13.55246345 -184.70564188 -13.87188734 -182.58984375 -14.19335938 C-158.2011944 -17.76657443 -133.56093788 -18.35975431 -108.95458984 -18.31567383 C-106.129886 -18.31098723 -103.30560714 -18.31819846 -100.48095703 -18.33618164 C-80.75071246 -18.46032086 -62.38354198 -17.64466629 -43.375 -11.8125 C-42.45460938 -11.53986328 -41.53421875 -11.26722656 -40.5859375 -10.98632812 C-38.38757922 -10.33369051 -36.1925468 -9.67184641 -34 -9 C-46.52556633 -21.52556633 -75.50192131 -23.03713071 -92.11807251 -23.13613892 C-93.39960709 -23.13449234 -93.39960709 -23.13449234 -94.70703125 -23.1328125 C-95.64179291 -23.13179535 -96.57655457 -23.1307782 -97.53964233 -23.12973022 C-109.43839405 -23.05698339 -121.31501942 -22.44523139 -133.19580078 -21.828125 C-137.12627514 -21.62493408 -141.05718829 -21.43299351 -144.98828125 -21.2421875 C-170.49544734 -20.04406339 -170.49544734 -20.04406339 -195.734375 -16.3828125 C-200.6707591 -15.54873381 -204.70173185 -15.1344879 -209 -18 C-208.5 -20.3125 -208.5 -20.3125 -207 -23 C-204.21024894 -24.29867722 -201.92275572 -25.197402 -199 -26 C-197.38677856 -26.48424438 -197.38677856 -26.48424438 -195.7409668 -26.97827148 C-189.49274926 -28.52552676 -183.0868252 -28.67536 -176.68359375 -29.0234375 C-175.26929938 -29.10558684 -173.85502877 -29.18814601 -172.44078064 -29.27108765 C-157.05693359 -30.15856574 -141.66319002 -30.85624049 -126.26867676 -31.52801514 C-123.27511914 -31.65961374 -120.28173265 -31.79490808 -117.28833866 -31.93017006 C-114.36031232 -32.06209594 -111.43220012 -32.19202699 -108.50405693 -32.32133102 C-107.12988329 -32.38218833 -105.75573296 -32.44357466 -104.38160896 -32.50554276 C-64.21732677 -34.30927997 -33.79252021 -20.88231667 0 0 Z " fill="#000000" transform="translate(326,80)"/>
<path d="M0 0 C2.70677352 2.18056161 5.35550551 4.4093061 7.98046875 6.6875 C8.80933594 7.40550781 9.63820313 8.12351563 10.4921875 8.86328125 C13.02465761 11.10155546 15.50977482 13.38126402 17.98046875 15.6875 C18.85445313 16.49574219 19.7284375 17.30398437 20.62890625 18.13671875 C44.9341555 41.43215106 60.14631318 73.2800617 68.98046875 105.375 C69.283479 106.46151855 69.58648926 107.54803711 69.89868164 108.66748047 C76.15115746 132.3964245 66.28531449 160.43755042 54.9609375 181.41796875 C52.44225678 185.57602746 49.69883783 188.60895004 45.98046875 191.6875 C44.86671875 192.8940625 44.86671875 192.8940625 43.73046875 194.125 C36.84951457 200.53679821 25.91999427 210.30303875 16.16015625 210.84375 C15.44085938 210.7921875 14.7215625 210.740625 13.98046875 210.6875 C13.65046875 209.6975 13.32046875 208.7075 12.98046875 207.6875 C16.41778281 202.53152891 21.12043416 199.03698565 25.92578125 195.1953125 C31.14288102 190.91222036 36.07159142 186.31920446 40.98046875 181.6875 C41.66238281 181.12675781 42.34429687 180.56601562 43.046875 179.98828125 C46.11633973 176.33592827 47.67372796 172.07135685 49.48046875 167.6875 C50.07529053 166.26074951 50.07529053 166.26074951 50.68212891 164.80517578 C51.79720098 162.10530925 52.89322531 159.3986733 53.98046875 156.6875 C54.65722656 155.01300781 54.65722656 155.01300781 55.34765625 153.3046875 C65.1709453 126.57620334 60.04966334 103.03793585 48.8840332 77.77539062 C48.10981493 75.98638368 47.40152173 74.169096 46.70703125 72.34765625 C44.35028305 66.85384771 40.75016079 61.99568068 37.41796875 57.0625 C36.69778564 55.99233643 35.97760254 54.92217285 35.2355957 53.81958008 C24.21873235 37.55435566 12.45468365 23.95806884 -3.01953125 11.6875 C-4.18803682 10.71966382 -5.35460607 9.74948648 -6.51953125 8.77734375 C-33.50592275 -13.57854146 -65.8622456 -26.75868815 -101.33203125 -23.6875 C-140.7073369 -19.70705357 -180.22344455 2.31790374 -205.51171875 32.6796875 C-213.55779904 42.74417925 -220.10737632 53.47129593 -225.70703125 65.0625 C-226.0635376 65.79227051 -226.42004395 66.52204102 -226.78735352 67.27392578 C-232.8457807 80.17486131 -236.26245923 93.94231202 -239.57446289 107.73876953 C-243.04912693 122.13552383 -243.04912693 122.13552383 -247.01953125 127.6875 C-249.08203125 128.8125 -249.08203125 128.8125 -251.01953125 128.6875 C-252.64624023 127.41723633 -252.64624023 127.41723633 -254.01953125 125.6875 C-253.83173465 117.74288727 -251.51593769 110.13559607 -249.45703125 102.5 C-249.28034912 101.84231628 -249.10366699 101.18463257 -248.92163086 100.50701904 C-236.9628917 56.21653407 -214.49106878 19.87539662 -176.01953125 -6.3125 C-174.97925781 -7.02535156 -173.93898438 -7.73820312 -172.8671875 -8.47265625 C-117.03569884 -44.61582072 -52.00249396 -39.82597209 0 0 Z " fill="#000000" transform="translate(343.01953125,188.3125)"/>
<path d="M0 0 C2.16054105 0.23247741 4.32143768 0.46140189 6.48239517 0.68997192 C42.20622066 4.49654516 71.32961658 11.93185437 97.08307266 38.55960083 C99.68784966 41.24349061 102.35855431 43.76230026 105.20026016 46.19558716 C111.37277995 51.53188671 116.99142163 57.43977484 122.71588516 63.24636841 C127.2579556 67.82810758 131.8254833 72.29223499 136.74005508 76.47463989 C148.78563517 86.8495059 163.77037655 102.95007462 166.49322891 118.98464966 C165.00822891 119.97464966 165.00822891 119.97464966 163.49322891 120.98464966 C156.94470292 117.54667351 153.64583073 111.93779366 149.49322891 105.98464966 C140.16743577 93.36984911 129.34002398 81.88973941 117.42291641 71.69558716 C114.65000929 69.23701768 112.08591873 66.58773755 109.48932266 63.94558716 C107.57811272 62.06803845 105.60288257 60.33655551 103.55572891 58.60964966 C100.49924258 55.98725574 97.83553449 53.20013965 95.18072891 50.17214966 C68.7224305 20.3217617 36.80146645 12.1330562 -1.69427109 9.23464966 C-3.96415943 9.12865259 -6.23521023 9.0449798 -8.50677109 8.98464966 C-9.76747421 8.94468872 -11.02817734 8.90472778 -12.32708359 8.86355591 C-29.68841874 8.57476658 -46.34650729 11.49397185 -63.27386093 15.07839966 C-66.36851381 15.73185032 -69.46655181 16.36688335 -72.56536484 17.00027466 C-89.1344743 20.43689166 -106.04488658 24.08263967 -121.25677109 31.73464966 C-122.12108749 32.15947632 -122.9854039 32.58430298 -123.87591171 33.02200317 C-136.73977457 39.46698834 -148.2757407 46.96804696 -158.95989609 56.60671997 C-160.50275836 57.98107519 -162.0769073 59.30903549 -163.66302109 60.63308716 C-173.75511868 69.21776951 -180.53756149 79.32805125 -185.24114609 91.77761841 C-186.84623331 94.5766131 -188.66907032 95.54230837 -191.50677109 96.98464966 C-194.3546629 91.90401067 -194.31587545 87.15961615 -192.88958359 81.56277466 C-183.06851483 54.2723712 -151.84120089 35.18931093 -127.00677109 23.23464966 C-108.05276663 14.42148638 -88.05997797 10.32751324 -67.50677109 6.98464966 C-109.2246694 8.23182151 -150.60695353 27.24516932 -179.50677109 57.10964966 C-180.225504 57.8813147 -180.94423691 58.65297974 -181.6847496 59.44802856 C-182.36851669 60.16394165 -183.05228378 60.87985474 -183.75677109 61.61746216 C-184.36005234 62.26602173 -184.96333359 62.9145813 -185.58489609 63.58279419 C-187.50677109 64.98464966 -187.50677109 64.98464966 -190.11614609 65.38259888 C-190.90505234 65.25127563 -191.69395859 65.11995239 -192.50677109 64.98464966 C-194.50677109 61.98464966 -194.50677109 61.98464966 -194.40130234 59.06668091 C-193.33131452 55.380129 -192.10286326 54.13540714 -189.19427109 51.67214966 C-188.27774765 50.89484497 -187.36122421 50.11754028 -186.41692734 49.31668091 C-182.15721913 45.90319661 -177.81665469 42.62397602 -173.41350937 39.39822388 C-171.17737043 37.7404461 -168.96506905 36.05313723 -166.75286484 34.36355591 C-157.61169799 27.39748851 -148.57514853 20.56993653 -138.50677109 14.98464966 C-137.92073105 14.65416626 -137.33469101 14.32368286 -136.73089218 13.98318481 C-95.69818711 -8.88662442 -45.05129161 -4.85548707 0 0 Z " fill="#000000" transform="translate(268.5067710876465,118.01535034179688)"/>
<path d="M0 0 C1.0413208 0.00149048 2.0826416 0.00298096 3.15551758 0.0045166 C21.52256401 0.05148935 39.59590046 0.93785423 57.8125 3.3125 C58.92431641 3.45703613 60.03613281 3.60157227 61.18164062 3.75048828 C105.90564528 9.83634967 144.15886365 29.03398603 171.90820312 65.12524414 C173.21613442 66.84953356 174.5146756 68.580596 175.8125 70.3125 C176.69459474 71.47320207 177.57739895 72.63336534 178.4609375 73.79296875 C186.08414915 83.84214848 186.08414915 83.84214848 185.8125 91.3125 C184.8125 92.3125 184.8125 92.3125 182.46484375 92.62109375 C179.8125 92.3125 179.8125 92.3125 178.00390625 90.66015625 C177.46636719 89.90605469 176.92882812 89.15195313 176.375 88.375 C175.776875 87.55 175.17875 86.725 174.5625 85.875 C172.47127064 82.81284272 170.43023458 79.72030437 168.39453125 76.62109375 C165.44520182 72.31725747 162.16425935 68.30698023 158.8125 64.3125 C158.07257813 63.42433594 157.33265625 62.53617188 156.5703125 61.62109375 C150.05472769 54.11214929 142.82857377 48.11804238 134.8125 42.3125 C134.20212891 41.86986816 133.59175781 41.42723633 132.96289062 40.97119141 C107.85521305 23.0002852 80.01929848 16.32624603 49.75 13.125 C48.55015976 12.99771515 48.55015976 12.99771515 47.32608032 12.86785889 C30.3265118 11.09043636 13.34420074 10.07713842 -3.75 10.0625 C-4.83961029 10.06148788 -4.83961029 10.06148788 -5.95123291 10.06045532 C-52.30269534 10.12800465 -95.40525765 23.93922026 -130.72827148 54.51269531 C-139.92187174 62.45559406 -139.92187174 62.45559406 -144.1875 64.3125 C-146.43359375 63.953125 -146.43359375 63.953125 -148.1875 63.3125 C-148.71243134 60.31289236 -148.70891754 58.16119026 -147.0859375 55.51953125 C-129.88677655 34.97373554 -104.82740056 24.42432214 -81.1875 13.3125 C-89.11435866 15.46035814 -96.57871513 18.40343517 -104.125 21.625 C-105.22779297 22.08583984 -106.33058594 22.54667969 -107.46679688 23.02148438 C-121.49642915 28.92726497 -121.49642915 28.92726497 -133.625 37.9375 C-134.40746094 38.67226562 -135.18992187 39.40703125 -135.99609375 40.1640625 C-138.07330735 42.20054642 -140.1375716 44.24856298 -142.1875 46.3125 C-144.39858422 43.39386883 -145.16995946 41.62822977 -145.375 37.9375 C-142.68636085 29.73007522 -133.61930937 25.11077405 -126.28076172 21.32958984 C-118.74972845 17.67035441 -110.97719011 14.56274004 -103.18603516 11.50830078 C-100.50820913 10.44039719 -97.87134165 9.30755719 -95.23046875 8.15234375 C-82.5506302 2.93802274 -70.20788326 2.49939641 -56.67871094 2.48608398 C-55.2115881 2.4845968 -53.74446561 2.48272403 -52.27734375 2.48046875 C-51.17126015 2.47903366 -51.17126015 2.47903366 -50.04283142 2.47756958 C-44.48225107 2.42761266 -39.03819381 1.94661618 -33.515625 1.3203125 C-22.34098841 0.07764431 -11.23452323 -0.04002372 0 0 Z " fill="#000000" transform="translate(226.1875,99.6875)"/>
<path d="M0 0 C1.13711426 0.39453369 2.27422852 0.78906738 3.44580078 1.19555664 C14.56858998 5.21044981 24.95719438 10.5887391 34.5625 17.5 C35.20251953 17.92603516 35.84253906 18.35207031 36.50195312 18.79101562 C40.02076914 21.3161091 41.72418815 23.1460216 42.80078125 27.41015625 C42.99027344 28.61542969 43.17976563 29.82070312 43.375 31.0625 C36.62334983 30.50592826 31.94225459 28.40371766 26.4375 24.5 C-2.60687939 4.06770338 -39.72875399 -2.90633784 -74.625 -3.9375 C-76.47544922 -3.999375 -76.47544922 -3.999375 -78.36328125 -4.0625 C-93.14359007 -4.30017331 -107.89438665 -3.01213415 -122.625 -1.9375 C-123.3956781 -1.8818689 -124.1663562 -1.82623779 -124.96038818 -1.7689209 C-179.26102856 1.17630103 -179.26102856 1.17630103 -229.55078125 20.32421875 C-232.64756426 22.0752587 -234.14837181 22.48390948 -237.625 22.0625 C-238.625 20.0625 -238.625 20.0625 -238.09765625 17.73046875 C-236.1447776 14.19249497 -233.39334395 12.47963445 -230.0625 10.375 C-225.69599124 7.85165328 -225.69599124 7.85165328 -222.625 4.0625 C-218.91138303 2.62446109 -215.02483334 1.68133197 -211.1875 0.625 C-210.15044922 0.32529297 -209.11339844 0.02558594 -208.04492188 -0.28320312 C-191.17934415 -4.98679135 -173.87385837 -6.72110276 -156.5 -8.4375 C-154.90844086 -8.5965834 -154.90844086 -8.5965834 -153.284729 -8.75888062 C-100.12590287 -14.05808688 -51.35851192 -17.9846881 0 0 Z " fill="#000000" transform="translate(326.625,98.9375)"/>
<path d="M0 0 C2.2904561 6.87136831 -2.23390635 13.87436566 -5.24609375 19.95507812 C-6.3226003 22.09131114 -7.40069733 24.2267435 -8.48046875 26.36132812 C-14.13281779 37.78524449 -18.12588264 49.14329334 -18.203125 61.95703125 C-18.21013931 62.72864594 -18.21715363 63.50026062 -18.22438049 64.29525757 C-18.24193071 66.80106405 -18.24824154 69.30663414 -18.25 71.8125 C-18.25067474 72.66735992 -18.25134949 73.52221985 -18.25204468 74.40298462 C-18.21144473 106.78087192 -14.23118307 144.22548659 9 169 C11.99122357 171.70398687 15.12201292 174.1904837 18.30566406 176.66308594 C20.95062997 178.75009362 23.5347614 180.90932141 26.12695312 183.0612793 C44.59581391 198.99247167 44.59581391 198.99247167 65 212.125 C68.27598338 214.17248962 69.07800321 215.31201283 70 219 C66.28968478 221.47354348 64.71033697 221.25383684 60.44335938 220.65966797 C56.04037771 219.47093331 52.79861754 216.83772594 49.25 214.0625 C48.47358154 213.47782959 47.69716309 212.89315918 46.8972168 212.29077148 C44.58505074 210.54360573 42.29216864 208.77327319 40 207 C38.73183128 206.03986435 37.46240716 205.08138332 36.19140625 204.125 C31.25956277 200.39657082 26.44469144 196.57816112 21.8046875 192.4921875 C19.44951519 190.54483724 16.98201392 188.78247612 14.5 187 C-8.19933811 170.57854423 -19.64975033 147.65076386 -24.25 120.4375 C-30.27128653 81.72229598 -32.79826002 41.81064553 -10.109375 8.19921875 C-7.02258597 3.99179109 -5.05538044 1.68799756 0 0 Z " fill="#000000" transform="translate(145,247)"/>
<path d="M0 0 C9.3694696 0.33045847 18.24005714 8.79087215 24.6484375 14.89453125 C31.42535246 22.19521408 37.54315344 31.91537372 38.31640625 42.078125 C38.08371125 46.33714855 37.43399863 48.18219399 34.6875 51.5625 C31.4942374 54.05480252 29.52464876 54.97889156 25.43359375 54.90234375 C11.9058633 52.91095196 -2.40388841 43.7089389 -10.8515625 33.07421875 C-17.96723978 23.19133364 -17.96723978 23.19133364 -17.75 17 C-16.75807099 13.10313603 -16.28549703 11.69406064 -12.875 9.5625 C-9.63183306 8.60505778 -7.13815548 8.68029514 -3.875 9.5625 C3.54725322 14.06766129 9.64734704 20.89158506 15.62207031 27.1315918 C18.5752007 30.18516565 21.32250857 32.55601928 25.125 34.5625 C20.33116405 21.87605016 10.06507291 15.75303426 -1.3203125 9.484375 C-3.875 7.5625 -3.875 7.5625 -4.8671875 4.953125 C-4.86976563 4.16421875 -4.87234375 3.3753125 -4.875 2.5625 C-2.875 0.5625 -2.875 0.5625 0 0 Z " fill="#000000" transform="translate(276.875,246.4375)"/>
<path d="M0 0 C0.87369484 -0.00407553 1.74738968 -0.00815105 2.64756012 -0.01235008 C7.26959483 -0.03306977 11.89160106 -0.04743342 16.51367188 -0.05688477 C21.23811128 -0.06794071 25.96207877 -0.10237241 30.68635178 -0.14205647 C34.36538458 -0.16842341 38.04430789 -0.17659405 41.72342682 -0.18016624 C43.46303762 -0.18497768 45.2026454 -0.19643177 46.94216156 -0.21520424 C61.39126629 -0.36149779 74.45513941 1.46758021 87.703125 7.67578125 C89.02666584 8.28922517 90.35089263 8.90119115 91.67578125 9.51171875 C92.62541748 9.95402832 92.62541748 9.95402832 93.59423828 10.40527344 C96.39528964 11.66048584 99.27153941 12.71214412 102.140625 13.80078125 C107.05376687 15.81951437 109.64459559 17.72457327 112.453125 22.23828125 C112.453125 22.89828125 112.453125 23.55828125 112.453125 24.23828125 C106.23185426 25.70065166 102.35302041 24.54536955 96.515625 22.17578125 C95.68877197 21.85649658 94.86191895 21.53721191 94.01000977 21.20825195 C91.48538132 20.23210743 88.96902615 19.23667054 86.453125 18.23828125 C84.27086889 17.38333822 82.08677889 16.53416406 79.89819336 15.69555664 C78.0155172 14.9736695 76.13839725 14.2373387 74.26171875 13.5 C63.42899381 9.73443982 52.72130235 9.9253894 41.390625 9.98828125 C40.4728125 9.99005371 39.555 9.99182617 38.609375 9.99365234 C20.60958713 10.03383044 2.64258071 10.69534256 -15.33618164 11.52636719 C-16.33666031 11.57235046 -17.33713898 11.61833374 -18.36793518 11.66571045 C-20.22145288 11.75210897 -22.07485303 11.84109262 -23.92808533 11.93341064 C-26.46734591 12.05397171 -29.00629116 12.15023526 -31.546875 12.23828125 C-32.52986572 12.28194824 -33.51285645 12.32561523 -34.52563477 12.37060547 C-35.50781982 12.39783691 -36.49000488 12.42506836 -37.50195312 12.453125 C-38.39531372 12.48398193 -39.28867432 12.51483887 -40.20910645 12.54663086 C-42.99377769 12.17933518 -43.82682022 11.39663541 -45.546875 9.23828125 C-44.796875 6.36328125 -44.796875 6.36328125 -42.546875 3.23828125 C-38.61837503 1.94131236 -34.65480812 1.59908384 -30.546875 1.23828125 C-29.39181709 1.11847397 -29.39181709 1.11847397 -28.21342468 0.99624634 C-18.81028494 0.09189573 -9.43732116 0.03762415 0 0 Z " fill="#000000" transform="translate(187.546875,33.76171875)"/>
<path d="M0 0 C0.33 0.33 0.66 0.66 1 1 C0.79837318 13.70248991 -7.54790693 23.14426138 -16 32 C-32.23247708 46.16479698 -50.47213021 50.28632569 -71.46826172 49.20703125 C-91.4873922 47.56997989 -109.19298275 36.70664919 -122.6875 22.25 C-125.67234451 18.70270086 -127.50911792 15.37946611 -129 11 C-128.01 10.34 -127.02 9.68 -126 9 C-120.95414955 12.17701695 -116.2147148 15.56454613 -111.625 19.375 C-96.28231736 32.06797143 -80.69383477 41.65314515 -60 40 C-43.39917002 38.38696389 -29.76835935 31.58068274 -18.171875 19.67578125 C-14.7524651 15.46301905 -12.25604196 10.82179852 -9.7265625 6.0390625 C-7.02191399 1.27839158 -5.64095596 -0.59378484 0 0 Z " fill="#000000" transform="translate(375,341)"/>
<path d="M0 0 C9.70739214 -0.40447467 24.81497315 1.06101326 32.421875 7.62109375 C33.71875 9.15234375 33.71875 9.15234375 33.71875 11.15234375 C30.06077602 13.46333608 26.94409448 13.39676277 22.6796875 13.3828125 C21.99879059 13.38235428 21.31789368 13.38189606 20.61636353 13.38142395 C19.17570249 13.37840838 17.73504452 13.37054284 16.29443359 13.3581543 C14.12194855 13.34007837 11.94989565 13.33764369 9.77734375 13.33789062 C-10.61953405 13.28898217 -10.61953405 13.28898217 -16.28125 10.15234375 C-15.69694845 6.2083083 -14.19907341 3.8513304 -11.28125 1.15234375 C-7.57378421 0.10820032 -3.81562833 0.2548108 0 0 Z " fill="#000000" transform="translate(199.28125,16.84765625)"/>
<path d="M0 0 C1.93481445 1.31347656 1.93481445 1.31347656 2.66064453 3.13476562 C3.33358528 9.52166263 2.04911159 14.17720265 -0.37768555 20.06347656 C-0.86011719 21.29904297 -0.86011719 21.29904297 -1.35229492 22.55957031 C-1.97015988 24.13531626 -2.60005455 25.70641706 -3.24389648 27.27172852 C-3.90547023 28.91641973 -4.48524062 30.5938854 -5.0378418 32.27832031 C-6.06518555 34.31347656 -6.06518555 34.31347656 -8.01049805 35.45800781 C-8.72979492 35.6784375 -9.4490918 35.89886719 -10.19018555 36.12597656 C-10.8745166 36.33569092 -11.55884766 36.54540527 -12.26391602 36.76147461 C-12.85833496 36.94363525 -13.45275391 37.1257959 -14.06518555 37.31347656 C-15.57274562 29.51105129 -14.2187234 24.4295675 -11.31518555 17.12597656 C-10.95424805 16.16755859 -10.59331055 15.20914062 -10.22143555 14.22167969 C-4.25639455 -1.41494047 -4.25639455 -1.41494047 0 0 Z " fill="#000000" transform="translate(443.065185546875,350.6865234375)"/>
<path d="M0 0 C0.66 0 1.32 0 2 0 C4.16505016 2.90473695 5.87851174 6.11442035 7.6875 9.25 C8.21150391 10.12269531 8.73550781 10.99539063 9.27539062 11.89453125 C9.76587891 12.73886719 10.25636719 13.58320313 10.76171875 14.453125 C11.21506592 15.22817383 11.66841309 16.00322266 12.13549805 16.80175781 C13.13821578 19.35145295 12.94215542 20.47368628 12 23 C7.1011835 22.03944774 4.11780716 21.05172393 1.0078125 16.83984375 C-1.59039586 12.09660291 -2.41219407 7.6782187 -1.125 2.4375 C-0.75375 1.633125 -0.3825 0.82875 0 0 Z " fill="#000000" transform="translate(154,378)"/>
</svg>
